<svg width="17" height="17" viewBox="0 0 17 17" fill="none" xmlns="http://www.w3.org/2000/svg">
    <path fill="#C6CBF7" stroke="#3C2FD5" stroke-width="1.889"
        d="M16.056 8.5A7.556 7.556 0 0 1 8.5 16.056 7.556 7.556 0 0 1 .944 8.5a7.556 7.556 0 0 1 15.112 0z" />
    <path
        d="M3.191 10.254V6.591h1.467q.405 0 .673.12.271.12.407.332.136.211.136.486 0 .214-.086.377-.086.161-.236.264a.9.9 0 0 1-.34.145v.036q.21.009.392.118.185.11.298.306.114.195.114.466 0 .291-.145.52a1 1 0 0 1-.424.359q-.28.133-.692.133zm.774-.634h.631q.324 0 .473-.124a.42.42 0 0 0 .148-.332.5.5 0 0 0-.073-.269.5.5 0 0 0-.21-.182.7.7 0 0 0-.32-.066h-.651zm0-1.497h.575q.16 0 .283-.056a.45.45 0 0 0 .196-.161.42.42 0 0 0 .073-.248q0-.198-.141-.321-.139-.121-.398-.121h-.588zm2.557-1.532h.954l1.01 2.462h.043l1.009-2.462h.955v3.664h-.751V7.87h-.031l-.949 2.366h-.511l-.949-2.375h-.031v2.392H6.52zm4.609 3.663V6.591h2.43v.638h-1.656v.715h.596q.434 0 .749.142.316.139.488.394.171.256.171.603 0 .345-.171.61-.171.263-.488.411-.315.148-.749.148zm.774-.622h.596q.207 0 .35-.076a.53.53 0 0 0 .291-.479.48.48 0 0 0-.167-.368q-.164-.151-.475-.152h-.596z"
        fill="#3C2FD4" />
</svg>