<svg width="17" height="17" viewBox="0 0 17 17" fill="none" xmlns="http://www.w3.org/2000/svg">
    <mask id="a" fill="#fff">
        <path
            d="M2.518 0h11.963A2.516 2.516 0 0 1 17 2.518v11.963A2.516 2.516 0 0 1 14.482 17H2.518A2.516 2.516 0 0 1 0 14.482V2.518A2.516 2.516 0 0 1 2.518 0" />
    </mask>
    <path fill="#C6CBF6" stroke="#3C2FD4" stroke-width="6.297" mask="url(#a)"
        d="M2.518 0h11.963A2.516 2.516 0 0 1 17 2.518v11.963A2.516 2.516 0 0 1 14.482 17H2.518A2.516 2.516 0 0 1 0 14.482V2.518A2.516 2.516 0 0 1 2.518 0z" />
</svg>