<svg width="30" height="30" viewBox="0 0 2.1 2.1" xmlns="http://www.w3.org/2000/svg"><path d="M.517 1.859h1.067c.184 0 .275-.091.275-.272V.513c0-.181-.091-.272-.275-.272H.517C.334.241.241.332.241.513v1.074c0 .182.093.272.276.272Zm.003-.142c-.088 0-.137-.046-.137-.138V.52C.383.429.432.383.52.383h1.062c.087 0 .137.046.137.138V1.58c0 .091-.05.138-.137.138Zm.163-.37a.07.07 0 0 0 .07.071.066.066 0 0 0 .05-.02l.249-.25.25.25a.069.069 0 0 0 .049.02.071.071 0 0 0 .071-.071.07.07 0 0 0-.021-.05l-.248-.249.249-.25A.065.065 0 0 0 1.423.75.07.07 0 0 0 1.35.681a.064.064 0 0 0-.046.021l-.252.251-.251-.25A.07.07 0 0 0 .754.682a.07.07 0 0 0-.07.07c0 .019.008.035.02.049l.249.249-.249.25a.071.071 0 0 0-.02.048Z"/></svg>