<svg width="20" height="20" viewBox="0 0 0.6 0.6" fill="none" xmlns="http://www.w3.org/2000/svg"><path d="M0.425 0.225 0.274 0.374m0 -0.15 0.15 0.15M0.068 0.324l0.108 0.144a0.182 0.182 0 0 0 0.018 0.022 0.041 0.041 0 0 0 0.017 0.008A0.134 0.134 0 0 0 0.24 0.5h0.19c0.042 0 0.064 0 0.08 -0.008a0.074 0.074 0 0 0 0.032 -0.033C0.55 0.442 0.55 0.422 0.55 0.38v-0.16c0 -0.042 0 -0.063 -0.008 -0.079A0.074 0.074 0 0 0 0.51 0.108C0.493 0.1 0.472 0.1 0.43 0.1H0.24c-0.014 0 -0.022 0 -0.029 0.002a0.05 0.05 0 0 0 -0.017 0.008 0.102 0.102 0 0 0 -0.018 0.022L0.068 0.276C0.062 0.285 0.058 0.289 0.058 0.294a0.025 0.025 0 0 0 0 0.013c0.002 0.005 0.005 0.009 0.01 0.018Z" stroke-width="0.0504" stroke-linecap="round" stroke-linejoin="round"/></svg>